M48
; DRILL file {KiCad 7.0.2} date Wed Feb 26 19:17:08 2025
; FORMAT={-:-/ absolute / metric / decimal}
; #@! TF.CreationDate,2025-02-26T19:17:08+01:00
; #@! TF.GenerationSoftware,Kicad,Pcbnew,7.0.2
; #@! TF.FileFunction,Plated,1,2,PTH
FMAT,2
METRIC
; #@! TA.AperFunction,Plated,PTH,ViaDrill
T1C0.400
; #@! TA.AperFunction,Plated,PTH,ComponentDrill
T2C1.000
%
G90
G05
T1
X183.55Y-77.25
X184.0Y-75.8
X185.45Y-82.25
X186.6Y-75.05
X187.25Y-71.2
X188.25Y-81.3
X188.35Y-82.2
X188.55Y-67.75
X189.0Y-78.85
X189.45Y-74.1
X189.55Y-68.65
X189.85Y-81.1
X190.0Y-66.4
X190.85Y-80.5
X195.3Y-62.9
X195.3Y-89.1
X195.9Y-92.0
X196.5Y-74.1
X196.5Y-75.1
X196.5Y-76.1
X196.5Y-77.1
X196.5Y-78.1
X196.5Y-79.1
X196.5Y-80.1
X196.5Y-81.1
X196.5Y-82.1
X196.5Y-83.1
X196.5Y-84.1
X197.25Y-87.251
X197.95Y-91.7
X200.15Y-63.65
X201.4Y-62.5
X202.25Y-93.55
X202.65Y-88.95
X203.05Y-63.0
X203.45Y-77.05
X203.95Y-93.45
X204.55Y-75.85
X204.8Y-65.6
X205.8Y-80.4
X205.85Y-76.5
X206.05Y-83.25
X206.1Y-68.3
X206.6Y-89.25
X206.95Y-77.4
X207.55Y-73.9
X209.35Y-64.65
X209.8Y-78.35
X209.8Y-80.3
X210.95Y-77.1
X211.85Y-89.1
X212.95Y-75.8
X213.0Y-82.35
T2
X186.81Y-86.35
X189.35Y-86.35
X193.48Y-70.65
X193.48Y-85.89
X196.02Y-70.65
X196.02Y-85.89
X198.1Y-64.01
X198.1Y-66.55
X198.56Y-70.65
X198.56Y-85.89
X201.1Y-70.65
X201.1Y-85.89
X203.64Y-70.65
X203.64Y-85.89
X206.18Y-70.65
X206.18Y-85.89
X208.72Y-70.65
X208.72Y-85.89
X211.26Y-70.65
X211.26Y-85.89
X213.8Y-70.65
X213.8Y-85.89
T0
M30
