G04 #@! TF.GenerationSoftware,KiCad,Pcbnew,7.0.2*
G04 #@! TF.CreationDate,2025-02-26T19:17:01+01:00*
G04 #@! TF.ProjectId,testESP32_2,74657374-4553-4503-9332-5f322e6b6963,rev?*
G04 #@! TF.SameCoordinates,Original*
G04 #@! TF.FileFunction,Copper,L2,Bot*
G04 #@! TF.FilePolarity,Positive*
%FSLAX46Y46*%
G04 Gerber Fmt 4.6, Leading zero omitted, Abs format (unit mm)*
G04 Created by KiCad (PCBNEW 7.0.2) date 2025-02-26 19:17:01*
%MOMM*%
%LPD*%
G01*
G04 APERTURE LIST*
G04 Aperture macros list*
%AMRoundRect*
0 Rectangle with rounded corners*
0 $1 Rounding radius*
0 $2 $3 $4 $5 $6 $7 $8 $9 X,Y pos of 4 corners*
0 Add a 4 corners polygon primitive as box body*
4,1,4,$2,$3,$4,$5,$6,$7,$8,$9,$2,$3,0*
0 Add four circle primitives for the rounded corners*
1,1,$1+$1,$2,$3*
1,1,$1+$1,$4,$5*
1,1,$1+$1,$6,$7*
1,1,$1+$1,$8,$9*
0 Add four rect primitives between the rounded corners*
20,1,$1+$1,$2,$3,$4,$5,0*
20,1,$1+$1,$4,$5,$6,$7,0*
20,1,$1+$1,$6,$7,$8,$9,0*
20,1,$1+$1,$8,$9,$2,$3,0*%
G04 Aperture macros list end*
G04 #@! TA.AperFunction,SMDPad,CuDef*
%ADD10RoundRect,0.237500X0.237500X-0.250000X0.237500X0.250000X-0.237500X0.250000X-0.237500X-0.250000X0*%
G04 #@! TD*
G04 #@! TA.AperFunction,SMDPad,CuDef*
%ADD11RoundRect,0.237500X-0.237500X0.250000X-0.237500X-0.250000X0.237500X-0.250000X0.237500X0.250000X0*%
G04 #@! TD*
G04 #@! TA.AperFunction,SMDPad,CuDef*
%ADD12RoundRect,0.237500X0.237500X-0.300000X0.237500X0.300000X-0.237500X0.300000X-0.237500X-0.300000X0*%
G04 #@! TD*
G04 #@! TA.AperFunction,ComponentPad*
%ADD13R,1.700000X1.700000*%
G04 #@! TD*
G04 #@! TA.AperFunction,ComponentPad*
%ADD14O,1.700000X1.700000*%
G04 #@! TD*
G04 #@! TA.AperFunction,SMDPad,CuDef*
%ADD15RoundRect,0.087500X0.287500X0.087500X-0.287500X0.087500X-0.287500X-0.087500X0.287500X-0.087500X0*%
G04 #@! TD*
G04 #@! TA.AperFunction,ViaPad*
%ADD16C,0.800000*%
G04 #@! TD*
G04 #@! TA.AperFunction,Conductor*
%ADD17C,0.400000*%
G04 #@! TD*
G04 APERTURE END LIST*
D10*
X202100000Y-68350000D03*
X202100000Y-66525000D03*
D11*
X200450000Y-66525000D03*
X200450000Y-68350000D03*
D12*
X203650000Y-68300000D03*
X203650000Y-66575000D03*
D13*
X213800000Y-70650000D03*
D14*
X211260000Y-70650000D03*
X208720000Y-70650000D03*
X206180000Y-70650000D03*
X203640000Y-70650000D03*
X201100000Y-70650000D03*
X198560000Y-70650000D03*
X196020000Y-70650000D03*
X193480000Y-70650000D03*
X193480000Y-85890000D03*
X196020000Y-85890000D03*
X198560000Y-85890000D03*
X201100000Y-85890000D03*
X203640000Y-85890000D03*
X206180000Y-85890000D03*
X208720000Y-85890000D03*
X211260000Y-85890000D03*
D13*
X213800000Y-85890000D03*
X189350000Y-86350000D03*
D14*
X186810000Y-86350000D03*
D13*
X198100000Y-66550000D03*
D14*
X198100000Y-64010000D03*
D15*
X187850000Y-75650000D03*
X187850000Y-76450000D03*
X187850000Y-77250000D03*
X187850000Y-78050000D03*
X187850000Y-78850000D03*
X187850000Y-79650000D03*
X187850000Y-80450000D03*
X185450000Y-80450000D03*
X185450000Y-79650000D03*
X185450000Y-78850000D03*
X185450000Y-78050000D03*
X185450000Y-77250000D03*
X185450000Y-76450000D03*
X185450000Y-75650000D03*
D16*
X209800000Y-80300000D03*
X209800000Y-78350500D03*
X185450000Y-82250000D03*
X201400000Y-62500000D03*
X206600000Y-89250000D03*
X190000000Y-66400000D03*
X206050000Y-83250000D03*
X211850000Y-89100000D03*
X206100000Y-68300000D03*
X207550000Y-73900000D03*
X183550000Y-77250000D03*
X189000000Y-78850000D03*
X196500000Y-77100000D03*
X212950000Y-75800000D03*
X188250000Y-81300000D03*
X189550000Y-68650000D03*
X204800000Y-65600000D03*
X206950000Y-77400000D03*
X205800000Y-80400000D03*
X209350000Y-64650000D03*
X203050000Y-63000000D03*
X196500000Y-80100000D03*
X189450000Y-74100000D03*
X204550000Y-75850000D03*
X203450000Y-77050000D03*
X188350000Y-82200000D03*
X196500000Y-84100000D03*
X195900000Y-92000000D03*
X196500000Y-76100000D03*
X210950000Y-77100000D03*
X187250000Y-71200000D03*
X195300000Y-62900000D03*
X205850000Y-76500000D03*
X196500000Y-83100000D03*
X200150000Y-63650000D03*
X196500000Y-75100000D03*
X188550000Y-67750000D03*
X203950000Y-93450000D03*
X196500000Y-74100000D03*
X196500000Y-79100000D03*
X196500000Y-81100000D03*
X202250000Y-93550000D03*
X213000000Y-82350000D03*
X196500000Y-78100000D03*
X196500000Y-82100000D03*
X186600000Y-75050000D03*
X197250000Y-87250500D03*
X190850000Y-80500000D03*
X189850000Y-81100000D03*
X184000000Y-75800000D03*
X197950000Y-91700000D03*
X202650000Y-88950000D03*
X195300000Y-89100000D03*
D17*
X204800000Y-66300000D02*
X204800000Y-65600000D01*
X204525000Y-66575000D02*
X204800000Y-66300000D01*
X203650000Y-66575000D02*
X204525000Y-66575000D01*
X203600000Y-66525000D02*
X203650000Y-66575000D01*
X202100000Y-66525000D02*
X203600000Y-66525000D01*
X198560000Y-68790000D02*
X199000000Y-68350000D01*
X198560000Y-70650000D02*
X198560000Y-68790000D01*
X199000000Y-68350000D02*
X200450000Y-68350000D01*
X200500000Y-68300000D02*
X200450000Y-68350000D01*
X203650000Y-68300000D02*
X200500000Y-68300000D01*
X198100000Y-66550000D02*
X200425000Y-66550000D01*
X200425000Y-66550000D02*
X200450000Y-66525000D01*
X184500000Y-79450000D02*
X184500000Y-81850000D01*
X184700000Y-78850000D02*
X184500000Y-79050000D01*
X185450000Y-78850000D02*
X184700000Y-78850000D01*
X184900000Y-82250000D02*
X185450000Y-82250000D01*
X209800000Y-80300000D02*
X209800000Y-78350500D01*
X185450000Y-79650000D02*
X184700000Y-79650000D01*
X184500000Y-79050000D02*
X184500000Y-79450000D01*
X184500000Y-81850000D02*
X184900000Y-82250000D01*
X185450000Y-77250000D02*
X183550000Y-77250000D01*
X188800000Y-78050000D02*
X188900000Y-78150000D01*
X189000000Y-78250000D02*
X189000000Y-78850000D01*
X187850000Y-78050000D02*
X188800000Y-78050000D01*
X188900000Y-78150000D02*
X189000000Y-78250000D01*
X186600000Y-75600000D02*
X186600000Y-75050000D01*
X186500000Y-77950000D02*
X186600000Y-77850000D01*
X186600000Y-77850000D02*
X186600000Y-75600000D01*
X185450000Y-78050000D02*
X186400000Y-78050000D01*
X186400000Y-78050000D02*
X186500000Y-77950000D01*
X197250000Y-87250500D02*
X200949500Y-87250500D01*
X190700000Y-76700000D02*
X190850000Y-76850000D01*
X187850000Y-76450000D02*
X190450000Y-76450000D01*
X190850000Y-76850000D02*
X190850000Y-79850000D01*
X201100000Y-87100000D02*
X201100000Y-85890000D01*
X190450000Y-76450000D02*
X190700000Y-76700000D01*
X190850000Y-79850000D02*
X190850000Y-80500000D01*
X200949500Y-87250500D02*
X201100000Y-87100000D01*
X189550000Y-77250000D02*
X189750000Y-77450000D01*
X189850000Y-77550000D02*
X189850000Y-81100000D01*
X189750000Y-77450000D02*
X189850000Y-77550000D01*
X187850000Y-77250000D02*
X189550000Y-77250000D01*
X188700000Y-72950000D02*
X184800000Y-72950000D01*
X184650000Y-76450000D02*
X185450000Y-76450000D01*
X184800000Y-72950000D02*
X184000000Y-73750000D01*
X193480000Y-70650000D02*
X191000000Y-70650000D01*
X191000000Y-70650000D02*
X188700000Y-72950000D01*
X184000000Y-73750000D02*
X184000000Y-75800000D01*
X184000000Y-75800000D02*
X184650000Y-76450000D01*
X197950000Y-91700000D02*
X197950000Y-89150000D01*
X198150000Y-88950000D02*
X202650000Y-88950000D01*
X197950000Y-89150000D02*
X198150000Y-88950000D01*
X196020000Y-87580000D02*
X196020000Y-85890000D01*
X195300000Y-88300000D02*
X196020000Y-87580000D01*
X195300000Y-89100000D02*
X195300000Y-88300000D01*
G04 #@! TA.AperFunction,Conductor*
G36*
X200939264Y-60620478D02*
G01*
X200945088Y-60620756D01*
X201779514Y-60680435D01*
X201785360Y-60680993D01*
X202615993Y-60780307D01*
X202621791Y-60781140D01*
X203446776Y-60919869D01*
X203452505Y-60920973D01*
X204269919Y-61098791D01*
X204275654Y-61100182D01*
X204736294Y-61223610D01*
X205083690Y-61316694D01*
X205089327Y-61318349D01*
X205886138Y-61573062D01*
X205891673Y-61574977D01*
X206675484Y-61867324D01*
X206680961Y-61869517D01*
X207449929Y-62198808D01*
X207455272Y-62201247D01*
X208207733Y-62566771D01*
X208212973Y-62569473D01*
X208947170Y-62970374D01*
X208952264Y-62973315D01*
X209666554Y-63408698D01*
X209671513Y-63411885D01*
X210364272Y-63880758D01*
X210369074Y-63884177D01*
X210979048Y-64340798D01*
X211038729Y-64385474D01*
X211043361Y-64389115D01*
X211688436Y-64921734D01*
X211692896Y-64925599D01*
X212311875Y-65488289D01*
X212316146Y-65492362D01*
X212907637Y-66083853D01*
X212911710Y-66088124D01*
X213474400Y-66707103D01*
X213478265Y-66711563D01*
X214005252Y-67349818D01*
X214010877Y-67356630D01*
X214014522Y-67361267D01*
X214288556Y-67727334D01*
X214515818Y-68030920D01*
X214519241Y-68035727D01*
X214988110Y-68728480D01*
X214991301Y-68733445D01*
X215426679Y-69447727D01*
X215429630Y-69452838D01*
X215830523Y-70187020D01*
X215833228Y-70192266D01*
X216198746Y-70944715D01*
X216201197Y-70950083D01*
X216530481Y-71719036D01*
X216532675Y-71724515D01*
X216825014Y-72508305D01*
X216826944Y-72513883D01*
X217081644Y-73310654D01*
X217083307Y-73316317D01*
X217299817Y-74124345D01*
X217301208Y-74130080D01*
X217479019Y-74947461D01*
X217480136Y-74953256D01*
X217618855Y-75778187D01*
X217619695Y-75784029D01*
X217719004Y-76614625D01*
X217719565Y-76620500D01*
X217779241Y-77454875D01*
X217779522Y-77460770D01*
X217799429Y-78297049D01*
X217799429Y-78302951D01*
X217779522Y-79139229D01*
X217779241Y-79145124D01*
X217719565Y-79979499D01*
X217719004Y-79985374D01*
X217619695Y-80815970D01*
X217618855Y-80821812D01*
X217480136Y-81646743D01*
X217479019Y-81652538D01*
X217301208Y-82469919D01*
X217299817Y-82475654D01*
X217083307Y-83283682D01*
X217081644Y-83289345D01*
X216826944Y-84086116D01*
X216825014Y-84091694D01*
X216532675Y-84875484D01*
X216530481Y-84880963D01*
X216201197Y-85649916D01*
X216198746Y-85655284D01*
X215833228Y-86407733D01*
X215830523Y-86412979D01*
X215429630Y-87147161D01*
X215426679Y-87152272D01*
X214991301Y-87866554D01*
X214988110Y-87871519D01*
X214519241Y-88564272D01*
X214515818Y-88569079D01*
X214014525Y-89238729D01*
X214010877Y-89243369D01*
X213478265Y-89888436D01*
X213474400Y-89892896D01*
X212911710Y-90511875D01*
X212907637Y-90516146D01*
X212316146Y-91107637D01*
X212311875Y-91111710D01*
X211692896Y-91674400D01*
X211688436Y-91678265D01*
X211043369Y-92210877D01*
X211038729Y-92214525D01*
X210369079Y-92715818D01*
X210364272Y-92719241D01*
X209671519Y-93188110D01*
X209666554Y-93191301D01*
X208952272Y-93626679D01*
X208947161Y-93629630D01*
X208212979Y-94030523D01*
X208207733Y-94033228D01*
X207455284Y-94398746D01*
X207449916Y-94401197D01*
X206680963Y-94730481D01*
X206675484Y-94732675D01*
X205891694Y-95025014D01*
X205886116Y-95026944D01*
X205089345Y-95281644D01*
X205083682Y-95283307D01*
X204275654Y-95499817D01*
X204269919Y-95501208D01*
X203452538Y-95679019D01*
X203446743Y-95680136D01*
X202621812Y-95818855D01*
X202615970Y-95819695D01*
X201785374Y-95919004D01*
X201779499Y-95919565D01*
X200945124Y-95979241D01*
X200939229Y-95979522D01*
X200102951Y-95999429D01*
X200097049Y-95999429D01*
X199260770Y-95979522D01*
X199254875Y-95979241D01*
X198420500Y-95919565D01*
X198414625Y-95919004D01*
X197584029Y-95819695D01*
X197578187Y-95818855D01*
X196753256Y-95680136D01*
X196747461Y-95679019D01*
X195930080Y-95501208D01*
X195924345Y-95499817D01*
X195116317Y-95283307D01*
X195110654Y-95281644D01*
X194313883Y-95026944D01*
X194308305Y-95025014D01*
X193524515Y-94732675D01*
X193519036Y-94730481D01*
X192750083Y-94401197D01*
X192744715Y-94398746D01*
X191992266Y-94033228D01*
X191987020Y-94030523D01*
X191252838Y-93629630D01*
X191247727Y-93626679D01*
X190533445Y-93191301D01*
X190528480Y-93188110D01*
X189835727Y-92719241D01*
X189830920Y-92715818D01*
X189372819Y-92372888D01*
X189161267Y-92214522D01*
X189156630Y-92210877D01*
X188537887Y-91700000D01*
X197044540Y-91700000D01*
X197064326Y-91888257D01*
X197122820Y-92068284D01*
X197217466Y-92232216D01*
X197344129Y-92372889D01*
X197497269Y-92484151D01*
X197670197Y-92561144D01*
X197855352Y-92600500D01*
X198044646Y-92600500D01*
X198044648Y-92600500D01*
X198168083Y-92574262D01*
X198229803Y-92561144D01*
X198402730Y-92484151D01*
X198555871Y-92372888D01*
X198682533Y-92232216D01*
X198777179Y-92068284D01*
X198835674Y-91888256D01*
X198855460Y-91700000D01*
X198835674Y-91511744D01*
X198777179Y-91331716D01*
X198777179Y-91331715D01*
X198682532Y-91167783D01*
X198682345Y-91167575D01*
X198682013Y-91166884D01*
X198676017Y-91156498D01*
X198676810Y-91156040D01*
X198652119Y-91104582D01*
X198650500Y-91084608D01*
X198650500Y-89774500D01*
X198670185Y-89707461D01*
X198722989Y-89661706D01*
X198774500Y-89650500D01*
X202041844Y-89650500D01*
X202108883Y-89670185D01*
X202114722Y-89674176D01*
X202197270Y-89734151D01*
X202197271Y-89734151D01*
X202197272Y-89734152D01*
X202370197Y-89811144D01*
X202555352Y-89850500D01*
X202744646Y-89850500D01*
X202744648Y-89850500D01*
X202868084Y-89824262D01*
X202929803Y-89811144D01*
X203102730Y-89734151D01*
X203190772Y-89670185D01*
X203255870Y-89622889D01*
X203382533Y-89482216D01*
X203477179Y-89318284D01*
X203486936Y-89288256D01*
X203535674Y-89138256D01*
X203555460Y-88950000D01*
X203535674Y-88761744D01*
X203477179Y-88581716D01*
X203477179Y-88581715D01*
X203382533Y-88417783D01*
X203255870Y-88277110D01*
X203102730Y-88165848D01*
X202929802Y-88088855D01*
X202744648Y-88049500D01*
X202744646Y-88049500D01*
X202555354Y-88049500D01*
X202555352Y-88049500D01*
X202370197Y-88088855D01*
X202197272Y-88165847D01*
X202114730Y-88225818D01*
X202048923Y-88249298D01*
X202041844Y-88249500D01*
X198174921Y-88249500D01*
X198167434Y-88249274D01*
X198107391Y-88245641D01*
X198048227Y-88256483D01*
X198040828Y-88257610D01*
X197981124Y-88264860D01*
X197971651Y-88268453D01*
X197950047Y-88274476D01*
X197940069Y-88276305D01*
X197885225Y-88300987D01*
X197878310Y-88303851D01*
X197822070Y-88325181D01*
X197813723Y-88330943D01*
X197794187Y-88341961D01*
X197784944Y-88346121D01*
X197737608Y-88383205D01*
X197731582Y-88387639D01*
X197682072Y-88421816D01*
X197642184Y-88466838D01*
X197637052Y-88472289D01*
X197472290Y-88637051D01*
X197466838Y-88642183D01*
X197421816Y-88682070D01*
X197387649Y-88731568D01*
X197383213Y-88737597D01*
X197346121Y-88784942D01*
X197341961Y-88794186D01*
X197330941Y-88813725D01*
X197325182Y-88822069D01*
X197303853Y-88878305D01*
X197300989Y-88885219D01*
X197276303Y-88940070D01*
X197274475Y-88950047D01*
X197268454Y-88971648D01*
X197264859Y-88981128D01*
X197257609Y-89040827D01*
X197256483Y-89048226D01*
X197245641Y-89107390D01*
X197249274Y-89167433D01*
X197249500Y-89174920D01*
X197249500Y-91084608D01*
X197229815Y-91151647D01*
X197217655Y-91167575D01*
X197217467Y-91167783D01*
X197122820Y-91331715D01*
X197064326Y-91511742D01*
X197044540Y-91700000D01*
X188537887Y-91700000D01*
X188511563Y-91678265D01*
X188507103Y-91674400D01*
X187888124Y-91111710D01*
X187883853Y-91107637D01*
X187292362Y-90516146D01*
X187288289Y-90511875D01*
X186725599Y-89892896D01*
X186721734Y-89888436D01*
X186718196Y-89884151D01*
X186189115Y-89243361D01*
X186185474Y-89238729D01*
X186137707Y-89174920D01*
X185684177Y-88569074D01*
X185680758Y-88564272D01*
X185644115Y-88510132D01*
X185211885Y-87871513D01*
X185208698Y-87866554D01*
X185203809Y-87858533D01*
X184773315Y-87152264D01*
X184770369Y-87147161D01*
X184754811Y-87118669D01*
X184471597Y-86600000D01*
X185479364Y-86600000D01*
X185536569Y-86813492D01*
X185636399Y-87027576D01*
X185771893Y-87221081D01*
X185938918Y-87388106D01*
X186132423Y-87523600D01*
X186346509Y-87623430D01*
X186560000Y-87680634D01*
X186560000Y-86785501D01*
X186667685Y-86834680D01*
X186774237Y-86850000D01*
X186845763Y-86850000D01*
X186952315Y-86834680D01*
X187060000Y-86785501D01*
X187060000Y-87680633D01*
X187273490Y-87623430D01*
X187487576Y-87523600D01*
X187681077Y-87388109D01*
X187803133Y-87266053D01*
X187864456Y-87232568D01*
X187934148Y-87237552D01*
X187990082Y-87279423D01*
X188006996Y-87310399D01*
X188056204Y-87442331D01*
X188142454Y-87557546D01*
X188257669Y-87643796D01*
X188392517Y-87694091D01*
X188452127Y-87700500D01*
X190247872Y-87700499D01*
X190307483Y-87694091D01*
X190442331Y-87643796D01*
X190557546Y-87557546D01*
X190643796Y-87442331D01*
X190694091Y-87307483D01*
X190700500Y-87247873D01*
X190700499Y-85452128D01*
X190694091Y-85392517D01*
X190643796Y-85257669D01*
X190557546Y-85142454D01*
X190442331Y-85056204D01*
X190307483Y-85005909D01*
X190247873Y-84999500D01*
X190244550Y-84999500D01*
X188455439Y-84999500D01*
X188455420Y-84999500D01*
X188452128Y-84999501D01*
X188448848Y-84999853D01*
X188448840Y-84999854D01*
X188392515Y-85005909D01*
X188257669Y-85056204D01*
X188142454Y-85142454D01*
X188056204Y-85257669D01*
X188006997Y-85389599D01*
X187965125Y-85445532D01*
X187899661Y-85469949D01*
X187831388Y-85455097D01*
X187803134Y-85433946D01*
X187681081Y-85311893D01*
X187487576Y-85176399D01*
X187273492Y-85076569D01*
X187060000Y-85019364D01*
X187060000Y-85914498D01*
X186952315Y-85865320D01*
X186845763Y-85850000D01*
X186774237Y-85850000D01*
X186667685Y-85865320D01*
X186560000Y-85914498D01*
X186560000Y-85019364D01*
X186559999Y-85019364D01*
X186346507Y-85076569D01*
X186132421Y-85176400D01*
X185938921Y-85311890D01*
X185771890Y-85478921D01*
X185636400Y-85672421D01*
X185536569Y-85886507D01*
X185479364Y-86099999D01*
X185479364Y-86100000D01*
X186376314Y-86100000D01*
X186350507Y-86140156D01*
X186310000Y-86278111D01*
X186310000Y-86421889D01*
X186350507Y-86559844D01*
X186376314Y-86600000D01*
X185479364Y-86600000D01*
X184471597Y-86600000D01*
X184369473Y-86412973D01*
X184366771Y-86407733D01*
X184344571Y-86362032D01*
X184001247Y-85655272D01*
X183998802Y-85649916D01*
X183915522Y-85455439D01*
X183669517Y-84880961D01*
X183667324Y-84875484D01*
X183658380Y-84851505D01*
X183374977Y-84091673D01*
X183373062Y-84086138D01*
X183118349Y-83289327D01*
X183116692Y-83283682D01*
X182900182Y-82475654D01*
X182898791Y-82469919D01*
X182874402Y-82357804D01*
X182720973Y-81652505D01*
X182719869Y-81646776D01*
X182581140Y-80821791D01*
X182580307Y-80815993D01*
X182480993Y-79985360D01*
X182480434Y-79979499D01*
X182479596Y-79967781D01*
X182420756Y-79145088D01*
X182420478Y-79139264D01*
X182400570Y-78302940D01*
X182400570Y-78297049D01*
X182400794Y-78287639D01*
X182420478Y-77460733D01*
X182420756Y-77454913D01*
X182480435Y-76620481D01*
X182480995Y-76614625D01*
X182578395Y-75800000D01*
X183094540Y-75800000D01*
X183103286Y-75883216D01*
X183114326Y-75988257D01*
X183172820Y-76168284D01*
X183267466Y-76332216D01*
X183394129Y-76472889D01*
X183547269Y-76584151D01*
X183720197Y-76661144D01*
X183875126Y-76694075D01*
X183936608Y-76727267D01*
X183937027Y-76727684D01*
X184137058Y-76927715D01*
X184142178Y-76933153D01*
X184182071Y-76978183D01*
X184182072Y-76978184D01*
X184231573Y-77012352D01*
X184237591Y-77016780D01*
X184284944Y-77053878D01*
X184294180Y-77058034D01*
X184313731Y-77069062D01*
X184322066Y-77074816D01*
X184322068Y-77074816D01*
X184322070Y-77074818D01*
X184378326Y-77096152D01*
X184385220Y-77099009D01*
X184440069Y-77123695D01*
X184450044Y-77125522D01*
X184471656Y-77131547D01*
X184481128Y-77135140D01*
X184540841Y-77142390D01*
X184548185Y-77143507D01*
X184607394Y-77154358D01*
X184664102Y-77150927D01*
X184667434Y-77150726D01*
X184674921Y-77150500D01*
X184962934Y-77150500D01*
X185029973Y-77170185D01*
X185075728Y-77222989D01*
X185085672Y-77292147D01*
X185056647Y-77355703D01*
X185010387Y-77389061D01*
X184946410Y-77415561D01*
X184898957Y-77425000D01*
X184581451Y-77425000D01*
X184581449Y-77425001D01*
X184590120Y-77490868D01*
X184636109Y-77601896D01*
X184643578Y-77671365D01*
X184636109Y-77696800D01*
X184589635Y-77808999D01*
X184589634Y-77809001D01*
X184589635Y-77809001D01*
X184574500Y-77923960D01*
X184574500Y-77928013D01*
X184574500Y-78058133D01*
X184554815Y-78125172D01*
X184502011Y-78170927D01*
X184501390Y-78171209D01*
X184435226Y-78200986D01*
X184428310Y-78203851D01*
X184372070Y-78225181D01*
X184363723Y-78230943D01*
X184344187Y-78241961D01*
X184334944Y-78246121D01*
X184287608Y-78283205D01*
X184281582Y-78287639D01*
X184232072Y-78321816D01*
X184192184Y-78366838D01*
X184187052Y-78372289D01*
X184022290Y-78537051D01*
X184016838Y-78542183D01*
X183971816Y-78582070D01*
X183937649Y-78631568D01*
X183933213Y-78637597D01*
X183896121Y-78684942D01*
X183891961Y-78694186D01*
X183880941Y-78713725D01*
X183875182Y-78722069D01*
X183853853Y-78778305D01*
X183850989Y-78785219D01*
X183826303Y-78840070D01*
X183824475Y-78850047D01*
X183818454Y-78871648D01*
X183814859Y-78881128D01*
X183807609Y-78940827D01*
X183806483Y-78948226D01*
X183795641Y-79007390D01*
X183799274Y-79067433D01*
X183799500Y-79074920D01*
X183799500Y-81825079D01*
X183799274Y-81832566D01*
X183795641Y-81892607D01*
X183806483Y-81951771D01*
X183807610Y-81959172D01*
X183814860Y-82018873D01*
X183818450Y-82028339D01*
X183824475Y-82049952D01*
X183826303Y-82059929D01*
X183850991Y-82114783D01*
X183853856Y-82121701D01*
X183875180Y-82177926D01*
X183875182Y-82177930D01*
X183880941Y-82186273D01*
X183891961Y-82205813D01*
X183896120Y-82215054D01*
X183933216Y-82262405D01*
X183937651Y-82268432D01*
X183971817Y-82317929D01*
X184016847Y-82357822D01*
X184022283Y-82362940D01*
X184387058Y-82727715D01*
X184392178Y-82733153D01*
X184432071Y-82778183D01*
X184432072Y-82778184D01*
X184481569Y-82812349D01*
X184487602Y-82816788D01*
X184534943Y-82853877D01*
X184544174Y-82858031D01*
X184563726Y-82869058D01*
X184572070Y-82874818D01*
X184628322Y-82896151D01*
X184635228Y-82899012D01*
X184690068Y-82923694D01*
X184700030Y-82925519D01*
X184721650Y-82931546D01*
X184731125Y-82935139D01*
X184731128Y-82935140D01*
X184790856Y-82942392D01*
X184798206Y-82943510D01*
X184857394Y-82954357D01*
X184857397Y-82954356D01*
X184869851Y-82956639D01*
X184920385Y-82978291D01*
X184997269Y-83034151D01*
X185170197Y-83111144D01*
X185355352Y-83150500D01*
X185544646Y-83150500D01*
X185544648Y-83150500D01*
X185668084Y-83124262D01*
X185729803Y-83111144D01*
X185902730Y-83034151D01*
X186009417Y-82956639D01*
X186055870Y-82922889D01*
X186099154Y-82874818D01*
X186182533Y-82782216D01*
X186277179Y-82618284D01*
X186335674Y-82438256D01*
X186355460Y-82250000D01*
X186335674Y-82061744D01*
X186280718Y-81892607D01*
X186277179Y-81881715D01*
X186182533Y-81717783D01*
X186055870Y-81577110D01*
X185902730Y-81465848D01*
X185729802Y-81388855D01*
X185644811Y-81370790D01*
X185583329Y-81337598D01*
X185549553Y-81276435D01*
X185554205Y-81206720D01*
X185595810Y-81150588D01*
X185661157Y-81125859D01*
X185670592Y-81125500D01*
X185771987Y-81125500D01*
X185776040Y-81125500D01*
X185890999Y-81110365D01*
X186034037Y-81051117D01*
X186156867Y-80956867D01*
X186251117Y-80834037D01*
X186310365Y-80690999D01*
X186325500Y-80576040D01*
X186325500Y-80323960D01*
X186310365Y-80209001D01*
X186264159Y-80097451D01*
X186256691Y-80027984D01*
X186264160Y-80002548D01*
X186310365Y-79890999D01*
X186325500Y-79776040D01*
X186325500Y-79523960D01*
X186310365Y-79409001D01*
X186264159Y-79297451D01*
X186256691Y-79227984D01*
X186264160Y-79202548D01*
X186310365Y-79090999D01*
X186325500Y-78976040D01*
X186325500Y-78879000D01*
X186345185Y-78811962D01*
X186397989Y-78766207D01*
X186428435Y-78760560D01*
X186427796Y-78757072D01*
X186442605Y-78754357D01*
X186442606Y-78754358D01*
X186501782Y-78743513D01*
X186509181Y-78742387D01*
X186568872Y-78735140D01*
X186578335Y-78731550D01*
X186599958Y-78725522D01*
X186609932Y-78723695D01*
X186664808Y-78698996D01*
X186671673Y-78696152D01*
X186727930Y-78674818D01*
X186736270Y-78669060D01*
X186755819Y-78658035D01*
X186765057Y-78653878D01*
X186774026Y-78646850D01*
X186838937Y-78621001D01*
X186907520Y-78634349D01*
X186958000Y-78682656D01*
X186974500Y-78744461D01*
X186974500Y-78976040D01*
X186975029Y-78980058D01*
X186989635Y-79091000D01*
X187035839Y-79202548D01*
X187043308Y-79272017D01*
X187035839Y-79297452D01*
X186989635Y-79408999D01*
X186989634Y-79409001D01*
X186989635Y-79409001D01*
X186974500Y-79523960D01*
X186974500Y-79776040D01*
X186975029Y-79780058D01*
X186989635Y-79891000D01*
X187035839Y-80002548D01*
X187043308Y-80072017D01*
X187035839Y-80097452D01*
X186989635Y-80208999D01*
X186977654Y-80300000D01*
X186974500Y-80323960D01*
X186974500Y-80576040D01*
X186975029Y-80580058D01*
X186989635Y-80691000D01*
X187048882Y-80834036D01*
X187143132Y-80956867D01*
X187241332Y-81032217D01*
X187265963Y-81051117D01*
X187409001Y-81110365D01*
X187523960Y-81125500D01*
X188171987Y-81125500D01*
X188176040Y-81125500D01*
X188290999Y-81110365D01*
X188434037Y-81051117D01*
X188556867Y-80956867D01*
X188651117Y-80834037D01*
X188710365Y-80690999D01*
X188725500Y-80576040D01*
X188725500Y-80323960D01*
X188710365Y-80209001D01*
X188664159Y-80097451D01*
X188656691Y-80027984D01*
X188664160Y-80002548D01*
X188710365Y-79890999D01*
X188725500Y-79776040D01*
X188725500Y-79523960D01*
X188710365Y-79409001D01*
X188664159Y-79297451D01*
X188656691Y-79227984D01*
X188664160Y-79202548D01*
X188710365Y-79090999D01*
X188725500Y-78976040D01*
X188725500Y-78723960D01*
X188710365Y-78609001D01*
X188663889Y-78496799D01*
X188656421Y-78427331D01*
X188663890Y-78401895D01*
X188709878Y-78290867D01*
X188718551Y-78225000D01*
X188401043Y-78225000D01*
X188353590Y-78215561D01*
X188352373Y-78215057D01*
X188290999Y-78189635D01*
X188290998Y-78189634D01*
X188289613Y-78189061D01*
X188235210Y-78145220D01*
X188213145Y-78078926D01*
X188230424Y-78011227D01*
X188281561Y-77963616D01*
X188337066Y-77950500D01*
X189025500Y-77950500D01*
X189092539Y-77970185D01*
X189138294Y-78022989D01*
X189149500Y-78074500D01*
X189149500Y-80484608D01*
X189129815Y-80551647D01*
X189117655Y-80567575D01*
X189117467Y-80567783D01*
X189022820Y-80731715D01*
X188964326Y-80911742D01*
X188944540Y-81099999D01*
X188964326Y-81288257D01*
X189022820Y-81468284D01*
X189117466Y-81632216D01*
X189244129Y-81772889D01*
X189397269Y-81884151D01*
X189570197Y-81961144D01*
X189755352Y-82000500D01*
X189944646Y-82000500D01*
X189944648Y-82000500D01*
X190068084Y-81974262D01*
X190129803Y-81961144D01*
X190302730Y-81884151D01*
X190455871Y-81772888D01*
X190582533Y-81632216D01*
X190677179Y-81468284D01*
X190677178Y-81468284D01*
X190680518Y-81462501D01*
X190731084Y-81414285D01*
X190787905Y-81400500D01*
X190944648Y-81400500D01*
X191068084Y-81374262D01*
X191129803Y-81361144D01*
X191302730Y-81284151D01*
X191455871Y-81172888D01*
X191582533Y-81032216D01*
X191608612Y-80987044D01*
X191659179Y-80938829D01*
X191727786Y-80925605D01*
X191792651Y-80951573D01*
X191833180Y-81008487D01*
X191840000Y-81049044D01*
X191840000Y-84370000D01*
X192992910Y-84370000D01*
X193059949Y-84389685D01*
X193105704Y-84442489D01*
X193115648Y-84511647D01*
X193086623Y-84575203D01*
X193027845Y-84612977D01*
X193025003Y-84613775D01*
X193016336Y-84616097D01*
X192802170Y-84715965D01*
X192608598Y-84851505D01*
X192441505Y-85018598D01*
X192305965Y-85212170D01*
X192206097Y-85426336D01*
X192144936Y-85654592D01*
X192124340Y-85889999D01*
X192144936Y-86125407D01*
X192185853Y-86278111D01*
X192206097Y-86353663D01*
X192305965Y-86567830D01*
X192441505Y-86761401D01*
X192608599Y-86928495D01*
X192802170Y-87064035D01*
X193016337Y-87163903D01*
X193244592Y-87225063D01*
X193480000Y-87245659D01*
X193715408Y-87225063D01*
X193943663Y-87163903D01*
X194157830Y-87064035D01*
X194351401Y-86928495D01*
X194518495Y-86761401D01*
X194648426Y-86575839D01*
X194703002Y-86532216D01*
X194772500Y-86525022D01*
X194834855Y-86556545D01*
X194851571Y-86575837D01*
X194981505Y-86761401D01*
X195148599Y-86928495D01*
X195225485Y-86982331D01*
X195266623Y-87011136D01*
X195310248Y-87065713D01*
X195319500Y-87112711D01*
X195319500Y-87238480D01*
X195299815Y-87305519D01*
X195283181Y-87326161D01*
X194822290Y-87787051D01*
X194816838Y-87792183D01*
X194771816Y-87832070D01*
X194737649Y-87881568D01*
X194733213Y-87887597D01*
X194696121Y-87934942D01*
X194691961Y-87944186D01*
X194680941Y-87963725D01*
X194675182Y-87972069D01*
X194653853Y-88028305D01*
X194650989Y-88035219D01*
X194626303Y-88090070D01*
X194624475Y-88100047D01*
X194618454Y-88121648D01*
X194614859Y-88131128D01*
X194607609Y-88190827D01*
X194606483Y-88198226D01*
X194595641Y-88257390D01*
X194599274Y-88317433D01*
X194599500Y-88324920D01*
X194599500Y-88484608D01*
X194579815Y-88551647D01*
X194567655Y-88567575D01*
X194567467Y-88567783D01*
X194472820Y-88731715D01*
X194414326Y-88911742D01*
X194394540Y-89100000D01*
X194414326Y-89288257D01*
X194472820Y-89468284D01*
X194567466Y-89632216D01*
X194694129Y-89772889D01*
X194847269Y-89884151D01*
X195020197Y-89961144D01*
X195205352Y-90000500D01*
X195394646Y-90000500D01*
X195394648Y-90000500D01*
X195518083Y-89974262D01*
X195579803Y-89961144D01*
X195752730Y-89884151D01*
X195853216Y-89811144D01*
X195905870Y-89772889D01*
X196032533Y-89632216D01*
X196127179Y-89468284D01*
X196175917Y-89318284D01*
X196185674Y-89288256D01*
X196205460Y-89100000D01*
X196185674Y-88911744D01*
X196129090Y-88737597D01*
X196127179Y-88731715D01*
X196076571Y-88644059D01*
X196060098Y-88576159D01*
X196082951Y-88510132D01*
X196096271Y-88494384D01*
X196497731Y-88092924D01*
X196503150Y-88087823D01*
X196548183Y-88047929D01*
X196565317Y-88023105D01*
X196619599Y-87979115D01*
X196689047Y-87971454D01*
X196740251Y-87993225D01*
X196743170Y-87995345D01*
X196797272Y-88034653D01*
X196970197Y-88111644D01*
X197155352Y-88151000D01*
X197344646Y-88151000D01*
X197344648Y-88151000D01*
X197482737Y-88121648D01*
X197529803Y-88111644D01*
X197702730Y-88034651D01*
X197785270Y-87974681D01*
X197851077Y-87951202D01*
X197858156Y-87951000D01*
X200924579Y-87951000D01*
X200932066Y-87951226D01*
X200935206Y-87951415D01*
X200992106Y-87954858D01*
X201051282Y-87944013D01*
X201058681Y-87942887D01*
X201118372Y-87935640D01*
X201127835Y-87932050D01*
X201149458Y-87926022D01*
X201159432Y-87924195D01*
X201214308Y-87899496D01*
X201221173Y-87896652D01*
X201277430Y-87875318D01*
X201285770Y-87869560D01*
X201305319Y-87858535D01*
X201314557Y-87854378D01*
X201361913Y-87817275D01*
X201367920Y-87812855D01*
X201417429Y-87778683D01*
X201457323Y-87733650D01*
X201462424Y-87728231D01*
X201577731Y-87612924D01*
X201583150Y-87607823D01*
X201628183Y-87567929D01*
X201662351Y-87518426D01*
X201666763Y-87512428D01*
X201703878Y-87465057D01*
X201708034Y-87455820D01*
X201719062Y-87436267D01*
X201724818Y-87427930D01*
X201746153Y-87371671D01*
X201748997Y-87364803D01*
X201773694Y-87309932D01*
X201775519Y-87299970D01*
X201781545Y-87278348D01*
X201785140Y-87268872D01*
X201792389Y-87209165D01*
X201793516Y-87201762D01*
X201804357Y-87142606D01*
X201802909Y-87118668D01*
X201818510Y-87050563D01*
X201855558Y-87009608D01*
X201971401Y-86928495D01*
X202138495Y-86761401D01*
X202268426Y-86575839D01*
X202323002Y-86532216D01*
X202392500Y-86525022D01*
X202454855Y-86556545D01*
X202471571Y-86575837D01*
X202601505Y-86761401D01*
X202768599Y-86928495D01*
X202962170Y-87064035D01*
X203176337Y-87163903D01*
X203404592Y-87225063D01*
X203640000Y-87245659D01*
X203875408Y-87225063D01*
X204103663Y-87163903D01*
X204317830Y-87064035D01*
X204511401Y-86928495D01*
X204678495Y-86761401D01*
X204808426Y-86575839D01*
X204863002Y-86532216D01*
X204932500Y-86525022D01*
X204994855Y-86556545D01*
X205011571Y-86575837D01*
X205141505Y-86761401D01*
X205308599Y-86928495D01*
X205502170Y-87064035D01*
X205716337Y-87163903D01*
X205944592Y-87225063D01*
X206180000Y-87245659D01*
X206415408Y-87225063D01*
X206643663Y-87163903D01*
X206857830Y-87064035D01*
X207051401Y-86928495D01*
X207218495Y-86761401D01*
X207348426Y-86575839D01*
X207403002Y-86532217D01*
X207472501Y-86525024D01*
X207534855Y-86556546D01*
X207551571Y-86575837D01*
X207681505Y-86761401D01*
X207848599Y-86928495D01*
X208042170Y-87064035D01*
X208256337Y-87163903D01*
X208469731Y-87221081D01*
X208484592Y-87225063D01*
X208719999Y-87245659D01*
X208719999Y-87245658D01*
X208720000Y-87245659D01*
X208955408Y-87225063D01*
X209183663Y-87163903D01*
X209397830Y-87064035D01*
X209591401Y-86928495D01*
X209758495Y-86761401D01*
X209888426Y-86575839D01*
X209943002Y-86532217D01*
X210012501Y-86525024D01*
X210074855Y-86556546D01*
X210091571Y-86575837D01*
X210221505Y-86761401D01*
X210388599Y-86928495D01*
X210582170Y-87064035D01*
X210796337Y-87163903D01*
X211009731Y-87221081D01*
X211024592Y-87225063D01*
X211259999Y-87245659D01*
X211259999Y-87245658D01*
X211260000Y-87245659D01*
X211495408Y-87225063D01*
X211723663Y-87163903D01*
X211937830Y-87064035D01*
X212131401Y-86928495D01*
X212253329Y-86806566D01*
X212314648Y-86773084D01*
X212384340Y-86778068D01*
X212440274Y-86819939D01*
X212457189Y-86850916D01*
X212506204Y-86982331D01*
X212592454Y-87097546D01*
X212707669Y-87183796D01*
X212842517Y-87234091D01*
X212902127Y-87240500D01*
X214697872Y-87240499D01*
X214757483Y-87234091D01*
X214892331Y-87183796D01*
X215007546Y-87097546D01*
X215093796Y-86982331D01*
X215144091Y-86847483D01*
X215150500Y-86787873D01*
X215150499Y-84992128D01*
X215144091Y-84932517D01*
X215093796Y-84797669D01*
X215007546Y-84682454D01*
X214892331Y-84596204D01*
X214757483Y-84545909D01*
X214697873Y-84539500D01*
X214694550Y-84539500D01*
X212905439Y-84539500D01*
X212905420Y-84539500D01*
X212902128Y-84539501D01*
X212898848Y-84539853D01*
X212898840Y-84539854D01*
X212842515Y-84545909D01*
X212707669Y-84596204D01*
X212592454Y-84682454D01*
X212506204Y-84797669D01*
X212457189Y-84929083D01*
X212415317Y-84985016D01*
X212349852Y-85009433D01*
X212281580Y-84994581D01*
X212253326Y-84973430D01*
X212131404Y-84851508D01*
X212131401Y-84851505D01*
X211937830Y-84715965D01*
X211723663Y-84616097D01*
X211662501Y-84599709D01*
X211495407Y-84554936D01*
X211259999Y-84534340D01*
X211024592Y-84554936D01*
X210796336Y-84616097D01*
X210582170Y-84715965D01*
X210388598Y-84851505D01*
X210221505Y-85018598D01*
X210091575Y-85204159D01*
X210036998Y-85247784D01*
X209967500Y-85254978D01*
X209905145Y-85223455D01*
X209888425Y-85204159D01*
X209784826Y-85056204D01*
X209758495Y-85018599D01*
X209591401Y-84851505D01*
X209397830Y-84715965D01*
X209183663Y-84616097D01*
X209122502Y-84599709D01*
X208955407Y-84554936D01*
X208719999Y-84534340D01*
X208484592Y-84554936D01*
X208256336Y-84616097D01*
X208042170Y-84715965D01*
X207848598Y-84851505D01*
X207681505Y-85018598D01*
X207551575Y-85204159D01*
X207496998Y-85247784D01*
X207427500Y-85254978D01*
X207365145Y-85223455D01*
X207348425Y-85204159D01*
X207244826Y-85056204D01*
X207218495Y-85018599D01*
X207051401Y-84851505D01*
X206857830Y-84715965D01*
X206643663Y-84616097D01*
X206582502Y-84599709D01*
X206415407Y-84554936D01*
X206180000Y-84534340D01*
X205944592Y-84554936D01*
X205716336Y-84616097D01*
X205502170Y-84715965D01*
X205308598Y-84851505D01*
X205141505Y-85018598D01*
X205011575Y-85204159D01*
X204956998Y-85247784D01*
X204887500Y-85254978D01*
X204825145Y-85223455D01*
X204808425Y-85204159D01*
X204704826Y-85056204D01*
X204678495Y-85018599D01*
X204511401Y-84851505D01*
X204317830Y-84715965D01*
X204103663Y-84616097D01*
X204042502Y-84599709D01*
X203875407Y-84554936D01*
X203640000Y-84534340D01*
X203404592Y-84554936D01*
X203176336Y-84616097D01*
X202962170Y-84715965D01*
X202768598Y-84851505D01*
X202601505Y-85018598D01*
X202471575Y-85204159D01*
X202416998Y-85247784D01*
X202347500Y-85254978D01*
X202285145Y-85223455D01*
X202268425Y-85204159D01*
X202164826Y-85056204D01*
X202138495Y-85018599D01*
X201971401Y-84851505D01*
X201777830Y-84715965D01*
X201563663Y-84616097D01*
X201502502Y-84599709D01*
X201335407Y-84554936D01*
X201099999Y-84534340D01*
X200864592Y-84554936D01*
X200636336Y-84616097D01*
X200422170Y-84715965D01*
X200228598Y-84851505D01*
X200061505Y-85018598D01*
X199931575Y-85204159D01*
X199876998Y-85247784D01*
X199807500Y-85254978D01*
X199745145Y-85223455D01*
X199728425Y-85204159D01*
X199624826Y-85056204D01*
X199598495Y-85018599D01*
X199431401Y-84851505D01*
X199237830Y-84715965D01*
X199023663Y-84616097D01*
X198962502Y-84599709D01*
X198795407Y-84554936D01*
X198560000Y-84534340D01*
X198324592Y-84554936D01*
X198096336Y-84616097D01*
X197882170Y-84715965D01*
X197688598Y-84851505D01*
X197521508Y-85018595D01*
X197521507Y-85018597D01*
X197521505Y-85018599D01*
X197495174Y-85056204D01*
X197391574Y-85204160D01*
X197336997Y-85247785D01*
X197267498Y-85254977D01*
X197205144Y-85223455D01*
X197188429Y-85204164D01*
X197058495Y-85018599D01*
X196891401Y-84851505D01*
X196697830Y-84715965D01*
X196483663Y-84616097D01*
X196422501Y-84599709D01*
X196255407Y-84554936D01*
X196198154Y-84549927D01*
X196133085Y-84524474D01*
X196092107Y-84467883D01*
X196088229Y-84398121D01*
X196090000Y-84394938D01*
X196090000Y-80299999D01*
X208894540Y-80299999D01*
X208914326Y-80488257D01*
X208972820Y-80668284D01*
X209067466Y-80832216D01*
X209194129Y-80972889D01*
X209347269Y-81084151D01*
X209520197Y-81161144D01*
X209705352Y-81200500D01*
X209894646Y-81200500D01*
X209894648Y-81200500D01*
X210024551Y-81172888D01*
X210079803Y-81161144D01*
X210252730Y-81084151D01*
X210356873Y-81008487D01*
X210405870Y-80972889D01*
X210532533Y-80832216D01*
X210627179Y-80668284D01*
X210685674Y-80488256D01*
X210705460Y-80300000D01*
X210685674Y-80111744D01*
X210638897Y-79967781D01*
X210627179Y-79931715D01*
X210539619Y-79780058D01*
X210532533Y-79767784D01*
X210532345Y-79767575D01*
X210532013Y-79766884D01*
X210526017Y-79756498D01*
X210526810Y-79756040D01*
X210502119Y-79704582D01*
X210500500Y-79684608D01*
X210500500Y-78965891D01*
X210520185Y-78898852D01*
X210532354Y-78882915D01*
X210532387Y-78882877D01*
X210532533Y-78882716D01*
X210627179Y-78718784D01*
X210685674Y-78538756D01*
X210705460Y-78350500D01*
X210685674Y-78162244D01*
X210640427Y-78022989D01*
X210627179Y-77982215D01*
X210532533Y-77818283D01*
X210405870Y-77677610D01*
X210252730Y-77566348D01*
X210079802Y-77489355D01*
X209894648Y-77450000D01*
X209894646Y-77450000D01*
X209705354Y-77450000D01*
X209705352Y-77450000D01*
X209520197Y-77489355D01*
X209347269Y-77566348D01*
X209194129Y-77677610D01*
X209067466Y-77818283D01*
X208972820Y-77982215D01*
X208914326Y-78162242D01*
X208894540Y-78350500D01*
X208914326Y-78538757D01*
X208972820Y-78718784D01*
X209067465Y-78882714D01*
X209067646Y-78882915D01*
X209067964Y-78883578D01*
X209073983Y-78894003D01*
X209073188Y-78894461D01*
X209097879Y-78945905D01*
X209099500Y-78965891D01*
X209099500Y-79684608D01*
X209079815Y-79751647D01*
X209067655Y-79767575D01*
X209067467Y-79767783D01*
X208972820Y-79931715D01*
X208914326Y-80111742D01*
X208894540Y-80299999D01*
X196090000Y-80299999D01*
X196090000Y-72420000D01*
X191840000Y-72420000D01*
X191840000Y-79950955D01*
X191820315Y-80017994D01*
X191767511Y-80063749D01*
X191698353Y-80073693D01*
X191634797Y-80044668D01*
X191608613Y-80012956D01*
X191602603Y-80002547D01*
X191582533Y-79967784D01*
X191582532Y-79967783D01*
X191582531Y-79967781D01*
X191582345Y-79967575D01*
X191582016Y-79966889D01*
X191576017Y-79956499D01*
X191576810Y-79956040D01*
X191552119Y-79904582D01*
X191550500Y-79884608D01*
X191550500Y-76874919D01*
X191550726Y-76867432D01*
X191554358Y-76807394D01*
X191543507Y-76748185D01*
X191542390Y-76740840D01*
X191535140Y-76681128D01*
X191531546Y-76671651D01*
X191525521Y-76650034D01*
X191523695Y-76640068D01*
X191499009Y-76585218D01*
X191496151Y-76578322D01*
X191474818Y-76522070D01*
X191469061Y-76513730D01*
X191458035Y-76494181D01*
X191453877Y-76484941D01*
X191416785Y-76437597D01*
X191412355Y-76431577D01*
X191378183Y-76382071D01*
X191333153Y-76342178D01*
X191327715Y-76337058D01*
X190962940Y-75972283D01*
X190957822Y-75966847D01*
X190917929Y-75921817D01*
X190868432Y-75887651D01*
X190862405Y-75883216D01*
X190815054Y-75846120D01*
X190805813Y-75841961D01*
X190786273Y-75830941D01*
X190777930Y-75825182D01*
X190777927Y-75825181D01*
X190777926Y-75825180D01*
X190721701Y-75803856D01*
X190714783Y-75800991D01*
X190659929Y-75776303D01*
X190649952Y-75774475D01*
X190628339Y-75768450D01*
X190618873Y-75764860D01*
X190559172Y-75757610D01*
X190551771Y-75756483D01*
X190492607Y-75745641D01*
X190432566Y-75749274D01*
X190425079Y-75749500D01*
X188849500Y-75749500D01*
X188782461Y-75729815D01*
X188736706Y-75677011D01*
X188725500Y-75625500D01*
X188725500Y-75528013D01*
X188725500Y-75523960D01*
X188710365Y-75409001D01*
X188651117Y-75265963D01*
X188640132Y-75251647D01*
X188556867Y-75143132D01*
X188434036Y-75048882D01*
X188291000Y-74989635D01*
X188180058Y-74975029D01*
X188176040Y-74974500D01*
X188171987Y-74974500D01*
X187609176Y-74974500D01*
X187542137Y-74954815D01*
X187496382Y-74902011D01*
X187485855Y-74863463D01*
X187485674Y-74861742D01*
X187427179Y-74681715D01*
X187332533Y-74517783D01*
X187205870Y-74377110D01*
X187052730Y-74265848D01*
X186879802Y-74188855D01*
X186694648Y-74149500D01*
X186694646Y-74149500D01*
X186505354Y-74149500D01*
X186505352Y-74149500D01*
X186320197Y-74188855D01*
X186147269Y-74265848D01*
X185994129Y-74377110D01*
X185867466Y-74517783D01*
X185772820Y-74681715D01*
X185714326Y-74861742D01*
X185714325Y-74861744D01*
X185714326Y-74861744D01*
X185714145Y-74863465D01*
X185712347Y-74867833D01*
X185710299Y-74874139D01*
X185709817Y-74873982D01*
X185687561Y-74928077D01*
X185630263Y-74968061D01*
X185590825Y-74974500D01*
X185123960Y-74974500D01*
X185119942Y-74975028D01*
X185119941Y-74975029D01*
X185008999Y-74989635D01*
X184871952Y-75046401D01*
X184802483Y-75053870D01*
X184740004Y-75022594D01*
X184704352Y-74962505D01*
X184700500Y-74931840D01*
X184700500Y-74091518D01*
X184720185Y-74024479D01*
X184736814Y-74003842D01*
X185053838Y-73686819D01*
X185115161Y-73653334D01*
X185141519Y-73650500D01*
X188675079Y-73650500D01*
X188682566Y-73650726D01*
X188685706Y-73650915D01*
X188742606Y-73654358D01*
X188801782Y-73643513D01*
X188809181Y-73642387D01*
X188868872Y-73635140D01*
X188878335Y-73631550D01*
X188899958Y-73625522D01*
X188909932Y-73623695D01*
X188964808Y-73598996D01*
X188971673Y-73596152D01*
X189027930Y-73574818D01*
X189036270Y-73569060D01*
X189055819Y-73558035D01*
X189065057Y-73553878D01*
X189112413Y-73516775D01*
X189118420Y-73512355D01*
X189167929Y-73478183D01*
X189207823Y-73433150D01*
X189212924Y-73427731D01*
X191253837Y-71386819D01*
X191315161Y-71353334D01*
X191341519Y-71350500D01*
X192257289Y-71350500D01*
X192324328Y-71370185D01*
X192358863Y-71403376D01*
X192441505Y-71521401D01*
X192608599Y-71688495D01*
X192802170Y-71824035D01*
X193016337Y-71923903D01*
X193244592Y-71985063D01*
X193480000Y-72005659D01*
X193715408Y-71985063D01*
X193943663Y-71923903D01*
X194157830Y-71824035D01*
X194351401Y-71688495D01*
X194518495Y-71521401D01*
X194648426Y-71335839D01*
X194703002Y-71292216D01*
X194772500Y-71285022D01*
X194834855Y-71316545D01*
X194851571Y-71335837D01*
X194981505Y-71521401D01*
X195148599Y-71688495D01*
X195342170Y-71824035D01*
X195556337Y-71923903D01*
X195784592Y-71985063D01*
X196020000Y-72005659D01*
X196255408Y-71985063D01*
X196483663Y-71923903D01*
X196697830Y-71824035D01*
X196891401Y-71688495D01*
X197058495Y-71521401D01*
X197188426Y-71335839D01*
X197243002Y-71292216D01*
X197312500Y-71285022D01*
X197374855Y-71316545D01*
X197391571Y-71335837D01*
X197521505Y-71521401D01*
X197688599Y-71688495D01*
X197882170Y-71824035D01*
X198096337Y-71923903D01*
X198308059Y-71980633D01*
X198324592Y-71985063D01*
X198559999Y-72005659D01*
X198559999Y-72005658D01*
X198560000Y-72005659D01*
X198795408Y-71985063D01*
X199023663Y-71923903D01*
X199237830Y-71824035D01*
X199431401Y-71688495D01*
X199598495Y-71521401D01*
X199728426Y-71335839D01*
X199783002Y-71292216D01*
X199852500Y-71285022D01*
X199914855Y-71316545D01*
X199931571Y-71335837D01*
X200061505Y-71521401D01*
X200228599Y-71688495D01*
X200422170Y-71824035D01*
X200636337Y-71923903D01*
X200864592Y-71985063D01*
X201100000Y-72005659D01*
X201335408Y-71985063D01*
X201563663Y-71923903D01*
X201777830Y-71824035D01*
X201971401Y-71688495D01*
X202138495Y-71521401D01*
X202268426Y-71335839D01*
X202323002Y-71292216D01*
X202392500Y-71285022D01*
X202454855Y-71316545D01*
X202471571Y-71335837D01*
X202601505Y-71521401D01*
X202768599Y-71688495D01*
X202962170Y-71824035D01*
X203176337Y-71923903D01*
X203404592Y-71985063D01*
X203640000Y-72005659D01*
X203875408Y-71985063D01*
X204103663Y-71923903D01*
X204317830Y-71824035D01*
X204511401Y-71688495D01*
X204678495Y-71521401D01*
X204808426Y-71335839D01*
X204863002Y-71292216D01*
X204932500Y-71285022D01*
X204994855Y-71316545D01*
X205011571Y-71335837D01*
X205141505Y-71521401D01*
X205308599Y-71688495D01*
X205502170Y-71824035D01*
X205716337Y-71923903D01*
X205928059Y-71980633D01*
X205944592Y-71985063D01*
X206179999Y-72005659D01*
X206179999Y-72005658D01*
X206180000Y-72005659D01*
X206415408Y-71985063D01*
X206643663Y-71923903D01*
X206857830Y-71824035D01*
X207051401Y-71688495D01*
X207218495Y-71521401D01*
X207348426Y-71335839D01*
X207403002Y-71292217D01*
X207472501Y-71285024D01*
X207534855Y-71316546D01*
X207551571Y-71335837D01*
X207681505Y-71521401D01*
X207848599Y-71688495D01*
X208042170Y-71824035D01*
X208256337Y-71923903D01*
X208468059Y-71980633D01*
X208484592Y-71985063D01*
X208719999Y-72005659D01*
X208719999Y-72005658D01*
X208720000Y-72005659D01*
X208955408Y-71985063D01*
X209183663Y-71923903D01*
X209397830Y-71824035D01*
X209591401Y-71688495D01*
X209758495Y-71521401D01*
X209888732Y-71335403D01*
X209943307Y-71291780D01*
X210012805Y-71284586D01*
X210075160Y-71316109D01*
X210091880Y-71335404D01*
X210221893Y-71521081D01*
X210388918Y-71688106D01*
X210582423Y-71823600D01*
X210796509Y-71923430D01*
X211010000Y-71980634D01*
X211010000Y-71085501D01*
X211117685Y-71134680D01*
X211224237Y-71150000D01*
X211295763Y-71150000D01*
X211402315Y-71134680D01*
X211509999Y-71085501D01*
X211509999Y-71980633D01*
X211723491Y-71923430D01*
X211937576Y-71823600D01*
X212131077Y-71688109D01*
X212253133Y-71566053D01*
X212314456Y-71532568D01*
X212384148Y-71537552D01*
X212440082Y-71579423D01*
X212456996Y-71610399D01*
X212506204Y-71742331D01*
X212592454Y-71857546D01*
X212707669Y-71943796D01*
X212842517Y-71994091D01*
X212902127Y-72000500D01*
X214697872Y-72000499D01*
X214757483Y-71994091D01*
X214892331Y-71943796D01*
X215007546Y-71857546D01*
X215093796Y-71742331D01*
X215144091Y-71607483D01*
X215150500Y-71547873D01*
X215150499Y-69752128D01*
X215144091Y-69692517D01*
X215093796Y-69557669D01*
X215007546Y-69442454D01*
X214892331Y-69356204D01*
X214757483Y-69305909D01*
X214697873Y-69299500D01*
X214694550Y-69299500D01*
X212905439Y-69299500D01*
X212905420Y-69299500D01*
X212902128Y-69299501D01*
X212898848Y-69299853D01*
X212898840Y-69299854D01*
X212842515Y-69305909D01*
X212707669Y-69356204D01*
X212592454Y-69442454D01*
X212506204Y-69557669D01*
X212456997Y-69689599D01*
X212415125Y-69745532D01*
X212349661Y-69769949D01*
X212281388Y-69755097D01*
X212253134Y-69733946D01*
X212131081Y-69611893D01*
X211937576Y-69476399D01*
X211723492Y-69376569D01*
X211509999Y-69319364D01*
X211509999Y-70214498D01*
X211402315Y-70165320D01*
X211295763Y-70150000D01*
X211224237Y-70150000D01*
X211117685Y-70165320D01*
X211010000Y-70214498D01*
X211010000Y-69319364D01*
X211009999Y-69319364D01*
X210796507Y-69376569D01*
X210582421Y-69476400D01*
X210388921Y-69611890D01*
X210221893Y-69778918D01*
X210091880Y-69964596D01*
X210037303Y-70008220D01*
X209967804Y-70015413D01*
X209905450Y-69983891D01*
X209888730Y-69964595D01*
X209758495Y-69778599D01*
X209591401Y-69611505D01*
X209397830Y-69475965D01*
X209183663Y-69376097D01*
X209122502Y-69359709D01*
X208955407Y-69314936D01*
X208719999Y-69294340D01*
X208484592Y-69314936D01*
X208256336Y-69376097D01*
X208042170Y-69475965D01*
X207848598Y-69611505D01*
X207681505Y-69778598D01*
X207551575Y-69964159D01*
X207496998Y-70007784D01*
X207427500Y-70014978D01*
X207365145Y-69983455D01*
X207348425Y-69964159D01*
X207218494Y-69778598D01*
X207051404Y-69611508D01*
X207051403Y-69611508D01*
X207051401Y-69611505D01*
X206857830Y-69475965D01*
X206643663Y-69376097D01*
X206582501Y-69359709D01*
X206415407Y-69314936D01*
X206180000Y-69294340D01*
X205944592Y-69314936D01*
X205716336Y-69376097D01*
X205502170Y-69475965D01*
X205308598Y-69611505D01*
X205141505Y-69778598D01*
X205011575Y-69964159D01*
X204956998Y-70007784D01*
X204887500Y-70014978D01*
X204825145Y-69983455D01*
X204808425Y-69964159D01*
X204678494Y-69778598D01*
X204511404Y-69611508D01*
X204511404Y-69611507D01*
X204511401Y-69611505D01*
X204317830Y-69475965D01*
X204273002Y-69455061D01*
X204220564Y-69408889D01*
X204201413Y-69341695D01*
X204221629Y-69274814D01*
X204260311Y-69237142D01*
X204348350Y-69182840D01*
X204470340Y-69060850D01*
X204560908Y-68914016D01*
X204615174Y-68750253D01*
X204625500Y-68649177D01*
X204625499Y-67950824D01*
X204615174Y-67849747D01*
X204560908Y-67685984D01*
X204470340Y-67539150D01*
X204456019Y-67524829D01*
X204422532Y-67463507D01*
X204427515Y-67393815D01*
X204456019Y-67349463D01*
X204469945Y-67335536D01*
X204560452Y-67188804D01*
X204614681Y-67025151D01*
X204624680Y-66927277D01*
X204625000Y-66920999D01*
X204625000Y-66825000D01*
X202736362Y-66825000D01*
X202669323Y-66805315D01*
X202648681Y-66788681D01*
X202635000Y-66775000D01*
X201974000Y-66775000D01*
X201906961Y-66755315D01*
X201861206Y-66702511D01*
X201850000Y-66651000D01*
X201850000Y-66274999D01*
X202349999Y-66274999D01*
X202350000Y-66275000D01*
X203013638Y-66275000D01*
X203080677Y-66294685D01*
X203101319Y-66311319D01*
X203115000Y-66325000D01*
X203400000Y-66325000D01*
X203400000Y-65537500D01*
X203900000Y-65537500D01*
X203900000Y-66325000D01*
X204624999Y-66325000D01*
X204624999Y-66229002D01*
X204624678Y-66222720D01*
X204614681Y-66124849D01*
X204560453Y-65961198D01*
X204469943Y-65814459D01*
X204348040Y-65692556D01*
X204201301Y-65602046D01*
X204037651Y-65547818D01*
X203939777Y-65537819D01*
X203933500Y-65537500D01*
X203900000Y-65537500D01*
X203400000Y-65537500D01*
X203366504Y-65537500D01*
X203360219Y-65537821D01*
X203262349Y-65547818D01*
X203098698Y-65602046D01*
X202940097Y-65699873D01*
X202872704Y-65718313D01*
X202809903Y-65699873D01*
X202651301Y-65602046D01*
X202487651Y-65547818D01*
X202389777Y-65537819D01*
X202383500Y-65537500D01*
X202350000Y-65537500D01*
X202349999Y-66274999D01*
X201850000Y-66274999D01*
X201849999Y-65537500D01*
X201816504Y-65537500D01*
X201810219Y-65537821D01*
X201712349Y-65547818D01*
X201548698Y-65602046D01*
X201401958Y-65692557D01*
X201363033Y-65731482D01*
X201301710Y-65764966D01*
X201232018Y-65759981D01*
X201187672Y-65731481D01*
X201148352Y-65692161D01*
X201001515Y-65601591D01*
X200837753Y-65547325D01*
X200739809Y-65537319D01*
X200739790Y-65537318D01*
X200736677Y-65537000D01*
X200733528Y-65537000D01*
X200166473Y-65537000D01*
X200166453Y-65537000D01*
X200163324Y-65537001D01*
X200160192Y-65537320D01*
X200160190Y-65537321D01*
X200062247Y-65547325D01*
X199898484Y-65601591D01*
X199751649Y-65692160D01*
X199662180Y-65781629D01*
X199600856Y-65815113D01*
X199531165Y-65810129D01*
X199475232Y-65768257D01*
X199450815Y-65702792D01*
X199450499Y-65693947D01*
X199450499Y-65655439D01*
X199450499Y-65655438D01*
X199450499Y-65652128D01*
X199444091Y-65592517D01*
X199393796Y-65457669D01*
X199307546Y-65342454D01*
X199192331Y-65256204D01*
X199060399Y-65206996D01*
X199004467Y-65165125D01*
X198980050Y-65099661D01*
X198994902Y-65031388D01*
X199016053Y-65003133D01*
X199138109Y-64881077D01*
X199273600Y-64687576D01*
X199373430Y-64473492D01*
X199430636Y-64260000D01*
X198533686Y-64260000D01*
X198559493Y-64219844D01*
X198600000Y-64081889D01*
X198600000Y-63938111D01*
X198559493Y-63800156D01*
X198533686Y-63760000D01*
X199430636Y-63760000D01*
X199430635Y-63759999D01*
X199373430Y-63546507D01*
X199273599Y-63332421D01*
X199138109Y-63138921D01*
X198971081Y-62971893D01*
X198777576Y-62836399D01*
X198563492Y-62736569D01*
X198350000Y-62679364D01*
X198350000Y-63574498D01*
X198242315Y-63525320D01*
X198135763Y-63510000D01*
X198064237Y-63510000D01*
X197957685Y-63525320D01*
X197850000Y-63574498D01*
X197850000Y-62679364D01*
X197849999Y-62679364D01*
X197636507Y-62736569D01*
X197422421Y-62836400D01*
X197228921Y-62971890D01*
X197061890Y-63138921D01*
X196926400Y-63332421D01*
X196826569Y-63546507D01*
X196769364Y-63759999D01*
X196769364Y-63760000D01*
X197666314Y-63760000D01*
X197640507Y-63800156D01*
X197600000Y-63938111D01*
X197600000Y-64081889D01*
X197640507Y-64219844D01*
X197666314Y-64260000D01*
X196769364Y-64260000D01*
X196826569Y-64473492D01*
X196926399Y-64687576D01*
X197061893Y-64881081D01*
X197183946Y-65003134D01*
X197217431Y-65064457D01*
X197212447Y-65134149D01*
X197170575Y-65190082D01*
X197139599Y-65206997D01*
X197007669Y-65256204D01*
X196892454Y-65342454D01*
X196806204Y-65457668D01*
X196755910Y-65592515D01*
X196755909Y-65592517D01*
X196749500Y-65652127D01*
X196749500Y-65655448D01*
X196749500Y-65655449D01*
X196749500Y-67444560D01*
X196749500Y-67444578D01*
X196749501Y-67447872D01*
X196749853Y-67451152D01*
X196749854Y-67451159D01*
X196755909Y-67507484D01*
X196767719Y-67539148D01*
X196806204Y-67642331D01*
X196892454Y-67757546D01*
X197007669Y-67843796D01*
X197142517Y-67894091D01*
X197202127Y-67900500D01*
X198159480Y-67900499D01*
X198226519Y-67920183D01*
X198272274Y-67972987D01*
X198282218Y-68042146D01*
X198253193Y-68105702D01*
X198247161Y-68112180D01*
X198082290Y-68277051D01*
X198076838Y-68282183D01*
X198031816Y-68322070D01*
X197997649Y-68371568D01*
X197993213Y-68377597D01*
X197956121Y-68424942D01*
X197951961Y-68434186D01*
X197940941Y-68453725D01*
X197935182Y-68462069D01*
X197913853Y-68518305D01*
X197910989Y-68525219D01*
X197886303Y-68580070D01*
X197884475Y-68590047D01*
X197878454Y-68611648D01*
X197874859Y-68621128D01*
X197867609Y-68680827D01*
X197866483Y-68688226D01*
X197855641Y-68747391D01*
X197859273Y-68807433D01*
X197859499Y-68814919D01*
X197859499Y-69427288D01*
X197839814Y-69494327D01*
X197806623Y-69528862D01*
X197688599Y-69611504D01*
X197521508Y-69778595D01*
X197391574Y-69964160D01*
X197336997Y-70007785D01*
X197267498Y-70014977D01*
X197205144Y-69983455D01*
X197188429Y-69964164D01*
X197058495Y-69778599D01*
X196891401Y-69611505D01*
X196697830Y-69475965D01*
X196483663Y-69376097D01*
X196422501Y-69359709D01*
X196255407Y-69314936D01*
X196020000Y-69294340D01*
X195784592Y-69314936D01*
X195556336Y-69376097D01*
X195342170Y-69475965D01*
X195148598Y-69611505D01*
X194981505Y-69778598D01*
X194851575Y-69964159D01*
X194796998Y-70007784D01*
X194727500Y-70014978D01*
X194665145Y-69983455D01*
X194648425Y-69964159D01*
X194518494Y-69778598D01*
X194351404Y-69611508D01*
X194351403Y-69611508D01*
X194351401Y-69611505D01*
X194157830Y-69475965D01*
X193943663Y-69376097D01*
X193882501Y-69359709D01*
X193715407Y-69314936D01*
X193480000Y-69294340D01*
X193244592Y-69314936D01*
X193016336Y-69376097D01*
X192802170Y-69475965D01*
X192608598Y-69611505D01*
X192441505Y-69778598D01*
X192358864Y-69896623D01*
X192304287Y-69940248D01*
X192257289Y-69949500D01*
X191024910Y-69949500D01*
X191017423Y-69949274D01*
X190957391Y-69945642D01*
X190898242Y-69956481D01*
X190890843Y-69957608D01*
X190831122Y-69964860D01*
X190821641Y-69968456D01*
X190800036Y-69974479D01*
X190790067Y-69976306D01*
X190735228Y-70000986D01*
X190728313Y-70003850D01*
X190672067Y-70025182D01*
X190663720Y-70030943D01*
X190644192Y-70041957D01*
X190634948Y-70046118D01*
X190587597Y-70083214D01*
X190581568Y-70087649D01*
X190532070Y-70121816D01*
X190492183Y-70166838D01*
X190487051Y-70172290D01*
X188446162Y-72213181D01*
X188384839Y-72246666D01*
X188358481Y-72249500D01*
X184824921Y-72249500D01*
X184817434Y-72249274D01*
X184757391Y-72245641D01*
X184698227Y-72256483D01*
X184690828Y-72257610D01*
X184631124Y-72264860D01*
X184621651Y-72268453D01*
X184600047Y-72274476D01*
X184590069Y-72276305D01*
X184535225Y-72300987D01*
X184528310Y-72303851D01*
X184472070Y-72325181D01*
X184463723Y-72330943D01*
X184444187Y-72341961D01*
X184434944Y-72346121D01*
X184387608Y-72383205D01*
X184381582Y-72387639D01*
X184332072Y-72421816D01*
X184292184Y-72466838D01*
X184287052Y-72472289D01*
X183522290Y-73237051D01*
X183516838Y-73242183D01*
X183471816Y-73282070D01*
X183437649Y-73331568D01*
X183433213Y-73337597D01*
X183396121Y-73384942D01*
X183391961Y-73394186D01*
X183380941Y-73413725D01*
X183375182Y-73422069D01*
X183353853Y-73478305D01*
X183350989Y-73485219D01*
X183326303Y-73540070D01*
X183324475Y-73550047D01*
X183318454Y-73571648D01*
X183314859Y-73581128D01*
X183307609Y-73640827D01*
X183306483Y-73648226D01*
X183295641Y-73707390D01*
X183299274Y-73767433D01*
X183299500Y-73774920D01*
X183299500Y-75184608D01*
X183279815Y-75251647D01*
X183267655Y-75267575D01*
X183267467Y-75267783D01*
X183172820Y-75431715D01*
X183114326Y-75611742D01*
X183094540Y-75799999D01*
X183094540Y-75800000D01*
X182578395Y-75800000D01*
X182580308Y-75784001D01*
X182581139Y-75778214D01*
X182719870Y-74953215D01*
X182720972Y-74947502D01*
X182898793Y-74130070D01*
X182900182Y-74124345D01*
X182995816Y-73767433D01*
X183116697Y-73316298D01*
X183118346Y-73310683D01*
X183373066Y-72513848D01*
X183374973Y-72508339D01*
X183667330Y-71724499D01*
X183669518Y-71719036D01*
X183998814Y-70950054D01*
X184001239Y-70944743D01*
X184366782Y-70192244D01*
X184369464Y-70187043D01*
X184770384Y-69452810D01*
X184773304Y-69447753D01*
X185208713Y-68733420D01*
X185211872Y-68728505D01*
X185680775Y-68035702D01*
X185684163Y-68030945D01*
X186185496Y-67361240D01*
X186189099Y-67356658D01*
X186721753Y-66711540D01*
X186725579Y-66707125D01*
X187288309Y-66088102D01*
X187292341Y-66083874D01*
X187883874Y-65492341D01*
X187888102Y-65488309D01*
X188507125Y-64925579D01*
X188511540Y-64921753D01*
X189156658Y-64389099D01*
X189161240Y-64385496D01*
X189830945Y-63884163D01*
X189835702Y-63880775D01*
X190528505Y-63411872D01*
X190533420Y-63408713D01*
X191247753Y-62973304D01*
X191252810Y-62970384D01*
X191987043Y-62569464D01*
X191992244Y-62566782D01*
X192744743Y-62201239D01*
X192750054Y-62198814D01*
X193519053Y-61869511D01*
X193524499Y-61867330D01*
X194308339Y-61574973D01*
X194313848Y-61573066D01*
X195110683Y-61318346D01*
X195116298Y-61316697D01*
X195924344Y-61100182D01*
X195930070Y-61098793D01*
X196747502Y-60920972D01*
X196753215Y-60919870D01*
X197578214Y-60781139D01*
X197584001Y-60780308D01*
X198414643Y-60680993D01*
X198420481Y-60680435D01*
X199254913Y-60620756D01*
X199260733Y-60620478D01*
X200097059Y-60600570D01*
X200102941Y-60600570D01*
X200939264Y-60620478D01*
G37*
G04 #@! TD.AperFunction*
M02*
